<svg width="381" height="318" viewBox="0 0 381 318" fill="none" xmlns="http://www.w3.org/2000/svg">
<path d="M255 182.66H254.88H255ZM87.9999 241C88.7599 241.12 92.9199 241.32 92.9199 240.6C92.9199 240.18 92.1599 240.2 92.1599 240.2C92.2599 237 96.3199 236.2 99.2199 237.88C100.019 238.34 100.758 238.897 101.42 239.54C97.3199 239.76 91.8799 242.56 92.2399 246.62C92.4466 247.679 92.8906 248.677 93.5383 249.539C94.1861 250.402 95.0208 251.106 95.9799 251.6C97.1788 252.497 98.5443 253.147 99.9967 253.511C101.449 253.875 102.96 253.946 104.44 253.72C107.076 253.048 109.396 251.478 111 249.28C114.625 249.395 118.172 248.211 121 245.94C121.119 245.845 121.218 245.727 121.29 245.593C121.363 245.459 121.407 245.312 121.42 245.16C121.42 244.46 121.42 244.5 117.42 240.06C117.307 239.934 117.165 239.836 117.006 239.776C116.847 239.716 116.677 239.695 116.508 239.714C116.34 239.734 116.178 239.794 116.038 239.889C115.897 239.984 115.781 240.111 115.7 240.26C115.631 240.347 115.571 240.441 115.52 240.54C115.202 241.136 114.689 241.605 114.066 241.868C113.443 242.13 112.749 242.17 112.1 241.98C110.1 241.4 107.52 236.1 102.82 232.94C98.7199 230.18 93.2199 229.36 89.3399 232.64C87.67 234.073 86.4827 235.987 85.9399 238.12C85.724 238.778 85.7669 239.493 86.0599 240.12C86.5852 240.629 87.2709 240.94 87.9999 241ZM95.5199 248.42C94.9716 248.028 94.591 247.444 94.4538 246.785C94.3167 246.125 94.4331 245.438 94.7799 244.86C95.6668 243.634 96.8995 242.701 98.3199 242.18C97.174 244.123 96.2355 246.181 95.5199 248.32V248.42ZM114.36 245.26C114.84 243.82 114.36 244.32 115.16 243.96C115.766 243.658 116.314 243.252 116.78 242.76L118.6 244.92C117.093 245.875 115.426 246.553 113.68 246.92C113.88 246.4 114.2 245.6 114.36 245.16V245.26ZM107.12 240.16C109.02 242.54 110.6 244.66 113.5 244.42C113.086 245.281 112.751 246.178 112.5 247.1C111.04 247.2 110.84 246.86 110.26 247.1C109.12 247.54 107.24 251.64 102.68 251.62C102.964 250.986 103.146 250.311 103.22 249.62C104.51 249.359 105.718 248.79 106.74 247.96C107.178 247.58 107.462 247.054 107.54 246.48C107.54 245.78 107.3 244.88 105.82 243.7C106.371 242.532 106.807 241.313 107.12 240.06V240.16ZM100.4 247.72C98.6399 246.78 101.64 245.12 103.58 245.18C104.026 245.183 104.461 245.313 104.837 245.553C105.212 245.794 105.511 246.136 105.7 246.54C105.433 246.97 105.081 247.341 104.665 247.63C104.249 247.92 103.779 248.121 103.283 248.222C102.786 248.323 102.275 248.322 101.779 248.218C101.283 248.115 100.814 247.911 100.4 247.62V247.72ZM102.76 235.48C104.118 236.635 105.351 237.928 106.44 239.34C105.807 240.494 105.323 241.724 105 243C104.159 242.759 103.278 242.693 102.411 242.806C101.544 242.92 100.71 243.21 99.9599 243.66C96.2999 245.66 97.1599 250.04 102.24 249.54C101.941 250.115 101.719 250.727 101.58 251.36C99.5518 250.956 97.6553 250.056 96.0599 248.74C97.4777 246.537 98.5817 244.147 99.3399 241.64C100.117 241.283 100.959 241.085 101.814 241.057C102.669 241.03 103.521 241.173 104.32 241.48L104.74 239.9L104.3 239.7C103.36 239.06 102.94 238.56 101.86 237.7C102.261 236.97 102.563 236.19 102.76 235.38V235.48ZM94.9999 232.28C97.5028 232.326 99.9262 233.166 101.92 234.68C101.562 235.495 101.294 236.347 101.12 237.22C100.161 236.468 99.0303 235.966 97.8292 235.76C96.628 235.554 95.3945 235.65 94.2399 236.04C94.6619 234.827 94.9176 233.562 94.9999 232.28ZM90.4199 233.84C91.5286 232.977 92.8611 232.45 94.2599 232.32C93.6393 233.664 93.2538 235.105 93.1199 236.58C92.524 236.937 92.0363 237.45 91.7087 238.063C91.3812 238.676 91.2261 239.366 91.2599 240.06C89.8586 240.137 88.4564 239.926 87.1399 239.44C87.4374 237.218 88.6023 235.205 90.3799 233.84H90.4199ZM60.5399 230.5C56.9399 228.94 48.9399 233.56 47.4799 236.04C47.2687 236.587 47.2687 237.193 47.4799 237.74C48.7399 242.52 60.4999 259.4 62.6799 262.02C63.0599 262.5 63.5799 261.84 63.2399 261.28C62.1999 259.56 62.3199 263.02 67.6399 245.8C68.1327 245.607 68.5918 245.337 68.9999 245C69.1854 244.794 69.2881 244.527 69.2881 244.25C69.2881 243.973 69.1854 243.706 68.9999 243.5C68.8183 243.276 68.6101 243.074 68.3799 242.9L69.6399 238.24L74.6399 241C73.6288 243.527 72.8912 246.156 72.4399 248.84C70.4234 249.567 68.5337 250.606 66.8399 251.92C65.6599 253.22 67.5199 255.62 68.6799 257.06C69.8399 258.5 70.8199 259.48 71.0399 259.7C71.2599 259.92 71.9599 259.7 71.8999 259.34C71.7729 259.05 71.6045 258.781 71.3999 258.54C70.3162 256.853 69.3858 255.073 68.6199 253.22C70.1744 252.29 71.8154 251.513 73.5199 250.9C74.1399 250.68 76.0599 250.08 76.5799 250.4C79.1458 251.752 81.8221 252.882 84.5799 253.78C84.6913 253.833 84.8192 253.84 84.9355 253.798C85.0518 253.757 85.1469 253.671 85.1999 253.56C85.253 253.449 85.2596 253.321 85.2183 253.204C85.1771 253.088 85.0913 252.993 84.9799 252.94L81.5199 250.84C82.2565 249.17 82.7288 247.395 82.9199 245.58L91.4599 250.2C91.9799 250.5 92.3799 249.68 91.9999 249.46C91.6199 249.24 65.6999 232.76 60.5399 230.5ZM57.4999 232.62C58.1979 232.41 58.942 232.41 59.6399 232.62C60.0999 232.82 61.2199 233.42 62.7399 234.26C62.2272 235.675 61.8783 237.145 61.6999 238.64C60.3599 237.88 59.5599 237.3 58.4999 237.48C57.9222 237.609 57.3817 237.869 56.9199 238.24C57.1199 236.68 57.2999 235.48 57.4999 232.62ZM49.4999 237.02C51.5742 235.042 54.0906 233.589 56.8399 232.78C55.7725 237.498 55.0242 242.282 54.5999 247.1C52.5832 243.906 50.8818 240.523 49.5199 237L49.4999 237.02ZM58.5799 253.84C57.4799 252.02 56.2799 250 55.1399 248.02C55.8199 245.16 56.0399 243.84 56.4599 241.14C57.5542 243.038 58.8194 244.832 60.2399 246.5C59.4336 248.881 58.8838 251.342 58.5999 253.84H58.5799ZM62.0799 259.6C61.3599 258.46 60.4399 256.92 59.2399 254.94C59.9992 252.431 60.5017 249.851 60.7399 247.24C61.1799 248.3 65.0999 246.78 66.1599 246.38C65.3799 248.84 62.6599 257.4 62.0999 259.6H62.0799ZM61.4799 246.62C60.2405 244.475 59.1447 242.25 58.1999 239.96L58.8199 239.62C59.0999 239.78 65.9399 243.82 66.4399 244.14C64.8812 245.131 63.2261 245.962 61.4999 246.62H61.4799ZM67.4799 242.22C65.9799 241.22 63.9399 240 62.3799 239.1C62.9137 237.684 63.2632 236.205 63.4199 234.7L69.0999 237.9C68.9999 238.66 68.3199 240.22 67.5999 242.22H67.4799ZM80.7199 250.22L77.6399 248.36C76.2713 247.82 74.7485 247.82 73.3799 248.36C74.1551 246.022 74.7174 243.619 75.0599 241.18L82.2999 245.18C81.5602 246.811 81.0682 248.543 80.8399 250.32L80.7199 250.22Z" fill="black"/>
<path d="M379.7 257.34C376.46 227.18 348.54 180.8 331.86 155.46C341.173 156.205 350.521 156.439 359.86 156.16C362.52 156.16 369.48 155.68 370.82 155.42C371.6 155.26 371.72 154.52 370.54 154.48C369.36 154.44 360.96 154.04 359.82 154.02H339.48C336.36 154.14 331.48 154.42 331.2 154.42C325.2 145.28 321.02 139.56 320.98 139.54C320.934 139.493 320.879 139.457 320.817 139.434C320.756 139.41 320.691 139.4 320.625 139.404C320.56 139.408 320.496 139.426 320.438 139.456C320.38 139.487 320.33 139.529 320.289 139.581C320.249 139.632 320.221 139.692 320.205 139.756C320.19 139.819 320.188 139.886 320.201 139.95C320.213 140.014 320.239 140.075 320.277 140.129C320.315 140.182 320.363 140.227 320.42 140.26C321.34 141 361.76 200.06 374.12 240.74C379.02 256.88 381.92 277.14 366.12 282.74C328.6 296.14 34.7399 300.5 6.95994 284.74C3.09994 282.56 2.19994 278.02 2.95994 271.9C4.13994 263.4 8.71994 251.9 14.2399 239.02C20.4599 245.02 72.0599 292.4 80.4199 290.62C88.7799 288.84 135.8 267 137.74 262.82C138.867 259.917 139.463 256.834 139.5 253.72C139.737 253.394 139.847 252.993 139.81 252.592C139.773 252.191 139.592 251.817 139.3 251.54C136.2 248.46 74.6999 199.7 70.7399 199.84C67.9799 199.96 62.9799 202.8 60.5999 204.2C59.8283 202.937 58.6794 201.949 57.3157 201.375C55.952 200.801 54.4423 200.67 52.9999 201C51.64 201.549 50.4223 202.4 49.4385 203.487C48.4547 204.575 47.7303 205.872 47.3199 207.28C47.3424 207.388 47.4013 207.485 47.4869 207.555C47.5726 207.624 47.6796 207.662 47.7899 207.662C47.9003 207.662 48.0073 207.624 48.0929 207.555C48.1786 207.485 48.2375 207.388 48.2599 207.28C49.4629 205.246 51.3699 203.723 53.6199 203C54.5555 202.856 55.5126 202.981 56.38 203.36C57.2474 203.739 57.9895 204.356 58.5199 205.14L36.2799 214.64C35.0991 213.426 33.6249 212.537 31.9999 212.06C28.1999 211.06 25.6399 213.56 24.1199 217.22C24.0865 217.325 24.0903 217.439 24.1309 217.542C24.1714 217.644 24.2462 217.73 24.3425 217.784C24.4389 217.838 24.5509 217.857 24.6598 217.838C24.7686 217.819 24.8675 217.763 24.9399 217.68C27.4999 213.98 30.4599 212.72 33.9999 215.68C29.7199 217.58 23.7399 220.28 19.5399 222.36C19.8399 221.88 62.9999 143.72 62.9999 143.52C64.8999 140 68.7199 133.7 72.66 132.88C74.4408 132.492 76.2573 132.291 78.0799 132.28C75.2999 136.88 52.7399 174.28 52.6999 179.56C52.6999 185.56 53.7399 184.62 56.9399 185.56C60.1399 186.5 239.2 185.4 239.52 185.4C242.62 185.4 254.74 185 255.86 184.18C259.34 181.62 258.56 177.8 257.04 173.78C256.68 172.82 254.86 168.84 252.42 163.52C262.92 160.36 270.82 164.38 271.54 181.52C272.26 196.34 266.42 200.86 255.24 200.22C246.26 199.7 240.06 197.06 238.1 200.56C235.9 204.46 241.98 213.22 244.62 216.86C244.24 216.86 227.5 216.52 223.28 216.34C217.333 216.11 211.379 216.183 205.44 216.56C201.35 216.65 197.284 217.207 193.32 218.22C191.82 218.96 189.88 222.82 189.06 224.44C187.44 227.62 180.06 247.58 178.02 253.34C176.82 256.66 172.76 267.66 175.48 269.6C175.38 271.74 175.72 274.6 177.6 275.6C179.48 276.6 205.32 277.32 207.3 277.36C210.8 277.46 246.18 277.92 268.76 276.92C291.34 275.92 301.2 273.76 300.62 273.82C301.193 273.651 301.709 273.326 302.108 272.881C302.507 272.436 302.774 271.888 302.88 271.3C303.188 269.822 303.092 268.288 302.6 266.86C305.12 261.96 286.06 221.28 280.78 218.42C280.468 218.244 280.118 218.148 279.76 218.14C278.7 218.14 254.98 217.14 245.76 216.84C243.76 214.02 237.26 203.4 239.76 201.14C243.56 197.82 275.3 214.46 273.6 181.34C272.72 166.36 265.82 157.58 251.82 162.66C250.6 160.02 240.36 138.14 237.62 132.32C248.235 132.955 258.883 132.721 269.46 131.62C269.612 133.487 270.149 135.301 271.037 136.95C271.925 138.599 273.145 140.046 274.62 141.2C282.62 147.2 314.46 146.3 320.24 138.96C321.86 136.745 322.979 134.205 323.521 131.515C324.063 128.825 324.015 126.049 323.38 123.38C323.912 123.041 324.324 122.545 324.56 121.96C324.88 121.34 324.56 120.56 323.18 120.28C321.4 120.013 319.599 119.906 317.8 119.96C317.8 118.32 317.9 115.26 317.8 111.78C317.98 111.66 319.28 110.1 319.42 109.92C321.014 108.057 322.272 105.933 323.14 103.64C323.8 101.78 324.06 99.64 322.32 98.6C319.64 97.14 317.76 99.82 316.86 102.82C316.02 98.2 314.08 91.42 309.44 92.1C301.56 93.2999 307 112.4 309.56 119.96C307.311 119.643 305.029 119.643 302.78 119.96C305.28 113.68 306.56 105.56 300.14 104.34C299.167 104.125 298.152 104.2 297.22 104.555C296.289 104.91 295.482 105.531 294.9 106.34C294.771 105.887 294.53 105.475 294.199 105.141C293.867 104.807 293.457 104.562 293.005 104.43C292.553 104.298 292.075 104.283 291.616 104.386C291.157 104.49 290.732 104.708 290.38 105.02C287.44 107.14 289.12 112 292.54 113.6C292.36 115.656 292.36 117.724 292.54 119.78C290.411 119.523 288.256 119.57 286.14 119.92C286.021 115.037 285.486 110.172 284.54 105.38C285.755 104.515 286.778 103.407 287.542 102.127C288.306 100.846 288.796 99.4201 288.98 97.9399C289.26 95.2799 288.32 93.0599 286.1 92.4799C283.32 91.7599 281.68 93.6999 281.2 96.4799C278.74 93.0799 273.92 91.8599 271.58 95.7599C264.08 87.9599 260.46 92.3199 262.36 95.7599C263.78 98.3999 267.48 99.8799 270.36 100.7C270.36 105.18 272.36 108.96 274.84 112.82C276.5 115.42 278.36 117.92 279.8 119.76C276.688 119.66 273.573 119.861 270.5 120.36C268.62 120.86 268.32 122.22 270.06 123.2C269.51 125.544 269.308 127.957 269.46 130.36C258.716 129.788 247.945 130.042 237.24 131.12C236.56 129.66 234.54 125.4 234.3 124.9C234.06 124.4 235.98 118.6 238.68 64.6799C251.08 63.6399 306.84 64.88 311.96 62.8999C312.253 62.7946 312.514 62.6131 312.714 62.3741C312.914 62.1352 313.047 61.8473 313.1 61.5399C314.8 55.9599 315.96 7.99995 313.1 3.53995C312.4 2.43995 309.9 2.09995 308.52 1.89995C290.7 -0.700051 216.34 0.419946 212.52 2.43995C208.7 4.45995 210.32 24.1799 211.04 28.0999C172.42 26.8599 83.2399 29.2799 74.8399 32.4199C72.8399 33.1399 72.0999 35.8799 71.6999 37.9399C68.3799 55.0799 77.6999 110.24 80.8199 127.28C80.6199 127.28 80.8199 127.28 78.3799 131.08C76.3147 130.927 74.2384 131.034 72.1999 131.4C67.6399 132.1 63.4399 138.4 61.1199 142.32C61.02 142.52 55.1199 152.32 54.2399 153.92C49.2199 153.14 25.8799 153.44 22.9199 153.6C19.9599 153.76 16.9199 153.98 14.2399 154.18C13.7599 154.18 13.7199 155.1 14.2399 155.12C19.8399 155.46 21.8999 155.58 26.2399 155.64C36.8599 155.8 52.5199 156.24 53.0199 156.18C51.9799 158 36.5799 185.4 34.5199 189.28C25.5599 206.08 18.5199 221.46 18.0999 222.76C15.775 223.817 13.5914 225.161 11.5999 226.76C10.9576 228.522 10.5736 230.368 10.4599 232.24C10.3599 235.46 11.5199 236.24 13.2999 238.04C8.52375 248.274 4.59718 258.883 1.55995 269.76C0.568398 274.161 0.527486 278.722 1.43994 283.14C2.25656 287.556 3.78298 291.811 5.95994 295.74C6.93783 296.733 8.20504 297.391 9.57994 297.62C14.8399 299.1 31.1399 301 36.5999 301.62C36.1883 304.064 36.0742 306.549 36.2599 309.02C36.2653 311.566 36.6358 314.099 37.3599 316.54C37.3665 316.6 37.3849 316.659 37.4141 316.712C37.4433 316.765 37.4827 316.812 37.53 316.851C37.5774 316.889 37.6318 316.917 37.6901 316.934C37.7484 316.951 37.8095 316.957 37.8699 316.95C37.9304 316.943 37.9889 316.925 38.0422 316.896C38.0955 316.867 38.1425 316.827 38.1806 316.78C38.2186 316.732 38.247 316.678 38.2641 316.62C38.2811 316.561 38.2865 316.5 38.2799 316.44C38.5999 313.947 38.6869 311.429 38.5399 308.92C38.5268 306.504 38.2518 304.097 37.7199 301.74C40.4799 301.98 43.1399 302.18 45.4599 302.26C45.091 304.594 44.9903 306.963 45.1599 309.32C45.1667 311.866 45.5371 314.398 46.2599 316.84C46.2599 316.962 46.3084 317.079 46.3947 317.165C46.4809 317.251 46.5979 317.3 46.7199 317.3C46.8419 317.3 46.959 317.251 47.0452 317.165C47.1315 317.079 47.1799 316.962 47.1799 316.84C47.5107 314.348 47.6045 311.83 47.4599 309.32C47.4462 306.984 47.178 304.657 46.6599 302.38C51.1199 302.48 116.76 308.38 230.12 306.14C260.5 305.54 297.02 304.14 327.1 300.84C326.703 303.252 326.589 305.702 326.76 308.14C326.77 310.681 327.147 313.207 327.88 315.64C327.866 315.707 327.867 315.776 327.883 315.843C327.899 315.91 327.929 315.972 327.973 316.025C328.016 316.078 328.07 316.121 328.132 316.151C328.194 316.18 328.261 316.195 328.33 316.195C328.398 316.195 328.466 316.18 328.528 316.151C328.59 316.121 328.644 316.078 328.687 316.025C328.73 315.972 328.761 315.91 328.777 315.843C328.793 315.776 328.794 315.707 328.78 315.64C329.129 313.149 329.223 310.63 329.06 308.12C329.038 305.649 328.75 303.189 328.2 300.78C330.42 300.54 335.56 299.9 336 299.84C335.606 302.239 335.499 304.676 335.68 307.1C335.681 309.647 336.052 312.18 336.78 314.62C336.793 314.742 336.854 314.854 336.95 314.931C337.046 315.007 337.168 315.043 337.29 315.03C337.412 315.017 337.524 314.956 337.601 314.86C337.677 314.764 337.713 314.642 337.7 314.52C338.029 312.034 338.116 309.522 337.96 307.02C337.947 304.555 337.659 302.1 337.1 299.7C346.12 298.48 373.7 294.76 377.46 287.06C381.9 278.28 381.54 266.86 379.7 257.34ZM197.7 225.14C197.92 224.6 204.62 223.14 211.94 225.14C212.007 225.126 212.076 225.127 212.143 225.143C212.21 225.159 212.272 225.189 212.325 225.233C212.378 225.276 212.421 225.33 212.451 225.392C212.48 225.454 212.495 225.521 212.495 225.59C212.495 225.658 212.48 225.726 212.451 225.788C212.421 225.85 212.378 225.904 212.325 225.947C212.272 225.99 212.21 226.021 212.143 226.037C212.076 226.053 212.007 226.054 211.94 226.04C208.295 226.687 204.573 226.782 200.9 226.32C199.18 226.04 197 226.02 197.64 225.14H197.7ZM300.52 272.7C282.02 276.22 179.82 275.42 178.28 274.7C176.74 273.98 176.6 271.66 176.56 270.14C187.64 273.74 295.9 270.96 301.92 267.78C302.24 269.54 302.32 272.36 300.46 272.7H300.52ZM261.7 225.36C261.7 224.68 266.1 224.3 266.3 224.28C268.916 224.079 271.544 224.079 274.16 224.28C275.62 224.44 277.64 224.64 277.48 225.26C277.32 225.88 274.3 226.14 273.78 226.22C271.825 226.4 269.863 226.48 267.9 226.46C266.58 226.42 261.56 226.18 261.64 225.36H261.7ZM287.4 232.02C292.404 241.554 296.605 251.489 299.96 261.72C300.386 263.012 300.622 264.36 300.66 265.72C291.64 268.52 187.68 271.4 177.16 268.38C176.66 268.24 176.52 268.38 176.4 267.54C175.64 262.1 184.54 240.48 186.6 235.44C224.44 234.18 287 232.24 287.34 232.02H287.4ZM270.56 99.7999C268.372 98.5985 266.388 97.0596 264.68 95.24C263.9 94.06 264.08 93.2399 266.38 94.3599C267.82 95.02 269.84 96.2 271.2 97.02C270.85 97.9099 270.635 98.8468 270.56 99.7999ZM318.56 103.38C320.16 100.5 321.74 99.68 321.58 101.38C320.72 104.422 319.498 107.35 317.94 110.1C317.82 108.1 317.68 106.76 317.52 105.44C317.6 105.16 318 104.32 318.5 103.38H318.56ZM310.06 120.78C310.46 121.92 310.72 122.6 310.74 122.64C310.762 122.697 310.795 122.748 310.837 122.792C310.879 122.836 310.93 122.871 310.986 122.895C311.041 122.919 311.102 122.932 311.162 122.933C311.223 122.934 311.284 122.923 311.34 122.9C312.22 122.56 310.92 121.74 308.84 109.68C308.22 106.08 306.38 94.9799 310.02 94.46C312.98 94.02 314.58 101.36 315.14 104.26C316.178 109.85 316.846 115.502 317.14 121.18C317.139 121.291 317.177 121.398 317.249 121.483C317.32 121.567 317.42 121.623 317.529 121.64C317.639 121.657 317.751 121.634 317.844 121.576C317.938 121.517 318.008 121.426 318.04 121.32C318.046 121.207 318.046 121.093 318.04 120.98C319.848 121.033 321.645 121.281 323.4 121.72C323.177 121.981 322.896 122.186 322.58 122.32C318.38 124.48 305.68 124.06 301.3 123.98C301.9 122.78 302.32 121.86 302.78 120.76C305.17 121.153 307.608 121.16 310 120.78H310.06ZM294.46 116.4C294.92 112.4 295.94 106.02 299.98 106.78C304.02 107.54 303 113.4 302.12 117.32C301.577 119.569 300.91 121.786 300.12 123.96H294.12C294.072 121.437 294.165 118.913 294.4 116.4H294.46ZM291.92 107C292.013 106.911 292.123 106.843 292.244 106.8C292.365 106.757 292.494 106.739 292.622 106.748C292.75 106.758 292.875 106.794 292.988 106.855C293.102 106.915 293.201 106.999 293.28 107.1C293.599 107.419 293.886 107.767 294.14 108.14C293.572 109.415 293.175 110.76 292.96 112.14C291.92 110.7 290.58 108.08 291.92 107ZM285.62 94.8399C288.22 95.6599 286.18 102.5 284.44 104.58C283.959 102.427 283.241 100.335 282.3 98.3399C282.88 96.5799 283.86 94.28 285.62 94.82V94.8399ZM280.7 121C281.68 122.24 282.32 123 282.32 123C282.399 123.078 282.505 123.125 282.616 123.132C282.727 123.138 282.837 123.104 282.926 123.036C283.014 122.967 283.074 122.869 283.095 122.759C283.116 122.65 283.096 122.536 283.04 122.44C283.04 122.44 279.5 117.4 276.58 112.18C274.38 108.18 272.28 104.18 272.86 99.7599C273.32 96.2799 275.16 94.8 278.26 96.82C282.74 99.7 284.78 117.46 285.42 122.82C285.426 122.96 285.476 123.095 285.562 123.206C285.648 123.317 285.766 123.399 285.9 123.44C286.44 123.44 286.36 122.86 286.34 122.58C286.32 122.3 286.34 120.9 286.34 120.76C288.465 121.029 290.615 121.029 292.74 120.76C292.86 122.22 293 123.36 293.1 123.96C286 123.96 277.42 124.44 271.54 122.14C274.562 121.542 277.623 121.161 280.7 121ZM271.12 123.94C274.045 125.074 277.128 125.748 280.26 125.94C283.8 126.26 307.9 126.3 310.64 126.16C314.772 126.092 318.862 125.328 322.74 123.9C323.112 126.356 322.972 128.862 322.328 131.261C321.685 133.66 320.551 135.9 319 137.84C314.14 143.54 283.4 144.84 276.02 139.64C271.16 136.3 270.28 129.62 271.12 123.92V123.94ZM255 182.66C255.42 184 64.7199 184.06 64.5199 184.04C56.5199 184.04 58.5199 184.04 55.8399 183.38C55.1199 183.22 54.9799 183.22 54.8399 182.52C54.6703 181.422 54.6233 180.308 54.6999 179.2C54.7419 179.282 54.8096 179.348 54.8927 179.388C54.9759 179.427 55.0698 179.439 55.16 179.42C55.16 179.42 254.94 176.7 256.24 176.66C256.78 179 256.86 181.18 255 182.66ZM311.26 61.2799C311.26 61.2799 311.38 61.0799 311.42 61.1399C311.46 61.1999 311.26 61.2599 311.16 61.2799H311.26ZM211.8 10.8399C211.8 9.53995 212.32 4.61995 213.48 4.01995C216.12 2.69995 300.02 1.57995 311.48 5.15995C313.48 9.35995 312.84 56.5399 311.16 61.2799C301.32 62.8199 251.8 62.6999 238.92 64.0199C239.7 48.2799 240.04 35.02 239.4 32.4399C239.277 32.1035 239.077 31.8002 238.817 31.5538C238.556 31.3074 238.243 31.1247 237.9 31.0199C233.52 29.1199 217.04 28.5799 212.24 28.4199C211.617 22.5816 211.47 16.7022 211.8 10.8399ZM73.4999 61.1999C73.1999 56.9999 71.7199 35.7999 75.7199 34.3199C77.7199 33.6199 84.7599 32.9199 94.9799 32.3199C114.56 31.0999 145.42 30.1199 173.5 29.9199C179.74 29.9199 232.46 29.4599 237.62 32.9999C239.14 39.9199 234.28 116.8 233.2 124.22C185.94 125.76 129.94 128.08 82.2799 126.92C81.4799 122.34 75.3599 86.9999 73.4999 61.1999ZM81.66 128.26C81.6638 128.213 81.6638 128.167 81.66 128.12C115.36 129.16 220.82 125.7 233.66 125.62C235.08 128.92 255.02 173.16 255.86 175.62C255.64 175.62 54.9999 178.34 54.7399 178.54C57.2599 170.1 78.1 134.42 81.66 128.26ZM136.64 262.26C135.16 265.14 90.3199 285.18 81.0999 287.96C81.2787 287.038 81.3459 286.098 81.2999 285.16C94.92 280.44 124.48 267.98 137.74 259.16C137.487 260.237 137.118 261.283 136.64 262.28V262.26ZM138.02 257.84C134.02 260.2 130.2 261.84 81.2799 284.08C81.2818 283.174 81.1607 282.273 80.9199 281.4C87.3199 278.4 130.72 261.58 138.46 254.88C138.36 255.74 138.22 256.78 138.02 257.86V257.84ZM34.9999 216.8C35.9617 217.933 36.5569 219.331 36.7069 220.809C36.8569 222.288 36.5546 223.777 35.8399 225.08C35.5199 225.58 36.2799 226.1 36.5999 225.58C37.8074 224.264 38.5211 222.57 38.6196 220.787C38.7181 219.003 38.1951 217.241 37.1399 215.8C46.8599 211.34 56.4199 207.14 59.0399 206C59.6954 207.332 60.0463 208.792 60.067 210.276C60.0878 211.76 59.7779 213.231 59.16 214.58C58.9199 215.22 59.6399 215.46 59.9799 215.04C61.0799 213.642 61.7645 211.963 61.9555 210.195C62.1465 208.427 61.8361 206.64 61.0599 205.04C63.2199 203.82 68.2599 201.04 70.7199 201.04C73.7999 201.04 136.3 251.88 137.46 253.04C132.24 258.42 83.7799 277.6 79.6999 279.56C71.0999 277.56 18.6199 232.42 13.6999 227.78C16.7599 225.24 31.5599 218.4 34.9999 216.8ZM12.1799 228.7C18.4199 234.8 70.4799 280.24 79.1999 281.68C79.025 282.434 78.9444 283.206 78.9599 283.98C64.9599 277.14 24.9599 242.5 11.7199 231.36C11.7799 231.36 12.0799 229.4 12.2399 228.7H12.1799ZM12.4799 235.56C11.9158 234.701 11.6359 233.687 11.6799 232.66C24.7599 245.86 61.6799 278.32 78.9399 285.08C78.9044 286.149 79.012 287.219 79.2599 288.26C68.9999 285.96 13.8399 237.2 12.5399 235.56H12.4799ZM376.48 286.4C363.56 312.04 12.9599 305.34 7.27995 295.34C4.87232 291.155 3.24586 286.567 2.47994 281.8C3.25148 283.49 4.5402 284.891 6.15994 285.8C35.5999 302.94 328.5 298.46 366.74 284.72C374.84 281.8 378.92 275.5 379.84 266.72C380.383 273.462 379.213 280.231 376.44 286.4H376.48Z" fill="black"/>
<path d="M77 150.38C218.42 152.38 231.92 151.16 235.88 150.54C236.82 150.4 237.42 150.08 237.38 148.98C237.38 146.08 230.58 132.78 228.78 131.86C227.98 131.44 84.78 133.46 84.28 133.62C84.1868 133.642 84.0995 133.684 84.0236 133.743C83.9478 133.802 83.8852 133.875 83.84 133.96C82.48 136.18 75.84 147.14 76.14 149.62C76.1725 149.827 76.2761 150.016 76.4331 150.155C76.5901 150.294 76.7906 150.373 77 150.38ZM84.86 135C86.3 134.82 227.18 133.42 228.04 133.5C229.533 135.648 230.87 137.9 232.04 140.24C228.76 140.24 82.16 141.02 81.4 141.04C82.28 139.28 83.44 137.28 84.86 135ZM80.86 142C81.64 142 229.98 141.24 232.52 141.18C233.836 143.63 234.876 146.22 235.62 148.9C228.5 150.04 163.62 149.48 77.72 148.9C78.5226 146.477 79.5609 144.14 80.82 141.92L80.86 142ZM187.38 157.18C186.981 156.297 186.329 155.552 185.507 155.039C184.684 154.527 183.729 154.269 182.76 154.3C177.68 154.3 135.02 153.12 131.18 154.68C128.729 157.65 126.832 161.038 125.58 164.68C125.46 165.56 125.9 165.96 126.44 166.02C138.44 167.32 178.22 168.56 188.54 166.66C189.82 166.42 189.98 165.06 189.72 163.76C189.101 161.513 188.319 159.314 187.38 157.18ZM127 164.68C128.149 161.435 129.708 158.35 131.64 155.5C134.68 154.5 174.22 156.58 182.82 156.56C183.332 156.542 183.838 156.672 184.278 156.934C184.718 157.197 185.073 157.581 185.3 158.04C186.272 160.117 187.029 162.289 187.56 164.52C177.42 166.1 134.36 165.2 127 164.68ZM326.28 159.74C323.46 155.86 309.32 156.04 304.58 156.18C300.58 156.18 286.04 156.84 286.04 160.76C286.057 161.077 286.149 161.386 286.309 161.661C286.469 161.936 286.692 162.169 286.96 162.34C287.34 162.64 284.72 189 288.32 203.14C289.5 207.82 291.02 210.14 295.48 212.08C304.04 215.8 318.24 214.98 323.94 207.04C325.08 204.72 324.84 197.96 324.94 195.9C333.8 197.66 341.06 194.06 342.94 184.52C344.12 178.38 342.6 174.36 339.98 171.92C338.229 170.495 336.16 169.514 333.949 169.061C331.738 168.609 329.45 168.697 327.28 169.32C327.204 169.346 327.123 169.353 327.044 169.341C326.965 169.328 326.89 169.298 326.826 169.251C326.761 169.204 326.709 169.142 326.673 169.07C326.637 168.999 326.619 168.92 326.62 168.84C326.62 167.78 327 160.6 326.28 159.74ZM288.28 160.16C293.68 157 315.68 156.76 322.78 159.98C323.02 160.1 323.92 160.56 323.92 160.76C323.92 160.96 323 161.44 322.78 161.54C317.42 163.96 298.28 165.06 288.22 161.38C287.52 161 288.22 160.24 288.22 160.16H288.28ZM327.84 171.36C329.658 170.836 331.575 170.761 333.428 171.141C335.281 171.52 337.015 172.344 338.48 173.54C340.64 175.54 341.72 178.98 340.72 184.08C340.521 185.853 339.907 187.554 338.927 189.045C337.947 190.536 336.629 191.774 335.08 192.66C331.8 194.136 328.107 194.419 324.64 193.46C324.47 193.398 324.288 193.372 324.107 193.383C323.926 193.395 323.75 193.443 323.588 193.526C323.427 193.608 323.284 193.723 323.169 193.863C323.054 194.003 322.97 194.166 322.92 194.34C322.38 195.86 323.14 202 322.04 205.88C316.98 212.74 304.04 213.36 296.38 210.14C292.5 208.48 291.42 206.76 290.38 202.62C287.7 192.8 287.54 172.8 288.14 162.96C294.44 165.94 316.26 166.8 324.84 162.4C324.84 168.6 324.08 169.64 325.64 170.9C325.942 171.128 326.29 171.287 326.659 171.366C327.029 171.446 327.411 171.443 327.78 171.36H327.84ZM133.56 213.74C128.307 209.285 122.657 205.322 116.68 201.9C114.377 200.541 111.928 199.448 109.38 198.64C107.24 198.08 106.34 199.18 106.78 200.64C107.682 202.736 108.873 204.695 110.32 206.46C114.922 212.285 120.214 217.53 126.08 222.08C135 229.54 146.56 238.58 155 245C155.43 245.314 155.918 245.539 156.437 245.662C156.955 245.785 157.492 245.804 158.018 245.716C158.543 245.628 159.046 245.437 159.496 245.152C159.946 244.868 160.335 244.497 160.64 244.06C162.12 242.44 163.04 239.6 161.38 238.06C159.46 236.34 147.72 225.28 133.56 213.74ZM114.4 209.3L111.66 204.88C112.635 204.475 113.46 203.776 114.02 202.88L118.36 204.64C117.271 204.856 116.287 205.434 115.568 206.28C114.849 207.126 114.437 208.19 114.4 209.3ZM120.54 214.4C119.095 213.184 117.756 211.845 116.54 210.4C116.68 207.98 117.44 206.9 119.86 206.82C121.472 207.59 122.995 208.536 124.4 209.64C123.324 209.902 122.365 210.509 121.667 211.369C120.97 212.229 120.574 213.294 120.54 214.4ZM154.74 243.5C152.52 241.64 123 216.6 121.18 215C121.333 213.88 121.822 212.833 122.582 211.998C123.343 211.162 124.34 210.577 125.44 210.32C132.34 215.44 142.26 223.92 159.56 238.32C158.887 238.286 158.214 238.399 157.589 238.653C156.964 238.906 156.402 239.293 155.943 239.787C155.484 240.28 155.138 240.869 154.93 241.51C154.722 242.152 154.657 242.831 154.74 243.5ZM313.22 265.66C315.72 267.36 317.46 266.58 319.08 264.22C323.08 258.54 337.08 233.4 337.08 233.2C337.08 233 337.24 233.38 336.58 225.3C336.551 224.996 336.442 224.706 336.262 224.459C336.083 224.212 335.84 224.018 335.56 223.898C335.28 223.777 334.972 223.734 334.669 223.773C334.367 223.812 334.08 223.932 333.84 224.12L327 229.1C327 229.1 311.82 260.48 311.66 260.76C311.385 261.638 311.388 262.579 311.667 263.456C311.946 264.333 312.488 265.102 313.22 265.66ZM334.4 226.56C334.52 228.02 334.68 229.96 334.8 231.3C333.314 230.589 331.76 230.033 330.16 229.64L334.4 226.56ZM328.68 231C330.413 232.229 332.416 233.024 334.52 233.32C334.22 233.84 318.94 261.72 318.78 262C318.316 261.055 317.552 260.29 316.608 259.823C315.664 259.357 314.593 259.215 313.56 259.42C315.12 256.52 328.12 232 328.68 231Z" fill="black"/>
<path d="M319.48 191.34C319.264 191.037 318.99 190.781 318.675 190.585C318.359 190.389 318.007 190.258 317.64 190.2C316.456 189.884 315.254 189.643 314.04 189.48C314.72 194.24 315.12 199.48 315.1 199.94C315.07 200.244 314.92 200.525 314.684 200.719C314.448 200.914 314.145 201.008 313.84 200.98C313.534 200.945 313.254 200.791 313.059 200.552C312.865 200.313 312.772 200.007 312.8 199.7C312.8 199.36 312.68 197.98 312.58 189.28C308.58 188.78 289.32 187.28 290.08 191.12C290.08 191.32 288.5 201.12 294.62 205.82C300.74 210.52 312.98 209.6 317.26 204.82C318.474 203.365 319.275 201.61 319.58 199.74C320.052 196.957 320.018 194.111 319.48 191.34ZM324.28 173.24C324.28 174.14 323.08 181.02 322.28 190.26L323.24 190.46C326.759 191.207 330.425 190.807 333.7 189.32C334.842 188.686 335.788 187.749 336.433 186.613C337.079 185.477 337.399 184.186 337.36 182.88C337.496 181.256 337.213 179.625 336.54 178.142C335.866 176.659 334.824 175.372 333.513 174.406C332.202 173.439 330.665 172.825 329.048 172.621C327.432 172.417 325.79 172.63 324.28 173.24ZM325.18 173.92C326.456 173.718 327.761 173.792 329.007 174.137C330.252 174.482 331.409 175.09 332.4 175.92C333.351 176.792 334.087 177.872 334.552 179.076C335.017 180.28 335.198 181.575 335.08 182.86C334.9 188 329.62 188.98 324.56 188.46C324.8 184.82 325 180.64 325.18 173.92ZM131.6 155.5C131.6 155.5 131.62 155.52 131.6 155.5V155.5ZM303.76 56.5199C303.755 56.8761 303.82 57.2299 303.952 57.5608C304.084 57.8917 304.28 58.1932 304.529 58.4479C304.779 58.7026 305.076 58.9055 305.404 59.0448C305.731 59.1842 306.084 59.2573 306.44 59.2599C306.984 59.2718 307.52 59.1213 307.978 58.8276C308.437 58.5338 308.797 58.1102 309.014 57.6107C309.23 57.1112 309.293 56.5585 309.194 56.0231C309.096 55.4877 308.839 54.9939 308.459 54.6046C308.078 54.2154 307.59 53.9484 307.057 53.8378C306.524 53.7271 305.97 53.7777 305.466 53.9832C304.962 54.1887 304.53 54.5398 304.226 54.9916C303.922 55.4434 303.76 55.9754 303.76 56.5199ZM84.8599 122.5C85.3199 123.4 85.9199 123.5 86.2999 123.22C86.6799 122.94 213.34 121.84 222.76 121.34C224.786 121.371 226.806 121.115 228.76 120.58C233.26 116.58 235.02 41.7999 233.26 38.3399C228.76 29.3599 87.9199 35.1399 79.2599 37.7599C72.3599 39.8399 81.6799 116.12 84.8599 122.5ZM78.8799 40.9999C78.8799 40.6399 79.3199 39.2399 79.6599 39.1399C89.2399 36.2599 228.34 31.5199 232.12 39.0399C232.442 40.5446 232.59 42.0814 232.56 43.6199C232.9 52.3399 232.56 71.0199 231.66 87.7599C231.48 90.9599 230.06 117.18 227.98 119.56C219.68 121.32 91.7799 121.72 86.0999 121.94C82.8599 114.42 75.8599 54.1999 78.8799 40.9999ZM306.7 12.4199C307.243 12.4318 307.778 12.2818 308.236 11.9889C308.694 11.696 309.054 11.2735 309.272 10.7752C309.489 10.2769 309.553 9.72523 309.456 9.19041C309.358 8.65558 309.104 8.16177 308.726 7.77178C308.347 7.38179 307.861 7.11325 307.329 7.00033C306.797 6.8874 306.244 6.93519 305.74 7.13762C305.235 7.34004 304.802 7.68796 304.496 8.1371C304.19 8.58624 304.024 9.11632 304.02 9.6599C304.012 10.0178 304.075 10.3737 304.206 10.7069C304.337 11.0402 304.533 11.344 304.782 11.6009C305.032 11.8577 305.33 12.0624 305.659 12.203C305.988 12.3436 306.342 12.4173 306.7 12.4199Z" fill="black"/>
<path d="M118.02 91.4H141.78C144.529 91.3894 147.162 90.2884 149.101 88.3386C151.04 86.3888 152.125 83.7495 152.12 81V61.72C152.12 58.9646 151.035 56.32 149.1 54.3586C147.165 52.3972 144.535 51.2768 141.78 51.24H118.02C116.642 51.2347 115.277 51.5022 114.003 52.027C112.729 52.5518 111.572 53.3235 110.598 54.2977C109.624 55.2719 108.852 56.4293 108.327 57.7032C107.802 58.9771 107.535 60.3423 107.54 61.72V81C107.545 82.371 107.82 83.7275 108.35 84.9922C108.879 86.2568 109.653 87.4048 110.626 88.3705C111.599 89.3362 112.753 90.1008 114.022 90.6206C115.29 91.1404 116.649 91.4052 118.02 91.4ZM109.24 61.72C109.276 59.4083 110.215 57.2024 111.855 55.5732C113.496 53.944 115.708 53.0206 118.02 53H141.78C142.948 52.9868 144.106 53.205 145.189 53.6421C146.272 54.0792 147.257 54.7264 148.088 55.5465C148.92 56.3666 149.58 57.3432 150.032 58.42C150.484 59.4967 150.717 60.6523 150.72 61.82V81C150.715 82.1688 150.479 83.3251 150.027 84.4028C149.575 85.4806 148.915 86.4588 148.085 87.2815C147.255 88.1043 146.271 88.7554 145.189 89.1978C144.107 89.6403 142.949 89.8652 141.78 89.86H118.02C116.862 89.8547 115.716 89.6214 114.648 89.1733C113.58 88.7252 112.61 88.0711 111.795 87.2484C110.98 86.4257 110.334 85.4504 109.896 84.3783C109.458 83.3062 109.235 82.1582 109.24 81V61.72ZM182.26 105.68C182.66 106.86 183.66 106.6 183.94 105.86C184.32 104.8 186.54 97.18 186.82 95.86C188.36 95.38 184.02 96.88 197.44 92C197.579 91.9461 197.699 91.8513 197.783 91.7281C197.867 91.605 197.913 91.4592 197.913 91.31C197.913 91.1607 197.867 91.015 197.783 90.8918C197.699 90.7687 197.579 90.6739 197.44 90.62L176.88 82.4C176.754 82.3403 176.614 82.3146 176.475 82.3257C176.335 82.3367 176.202 82.3841 176.086 82.4629C175.971 82.5418 175.878 82.6495 175.818 82.7753C175.757 82.9011 175.73 83.0406 175.74 83.18C175.74 83.18 181.16 102.5 182.26 105.68ZM177.8 84.54L195.12 91.36C192.8 92.22 188.88 93.7 187 94.46C186.16 94.78 185.82 94.92 185.62 95.18C185.42 95.44 186.12 93.88 183.18 102.94L177.8 84.54ZM225 25.9C225.023 26.0199 225.088 26.1278 225.184 26.2046C225.279 26.2814 225.398 26.3223 225.52 26.32C225.94 26.32 238.88 27.56 241.52 26.86C243.22 26.4 243.52 23.4 243.68 21.64C243.88 18.98 243.68 12.46 242.56 10.24C241.04 7.23999 229.82 8.23998 226.56 8.81998C225.695 8.94173 224.868 9.25612 224.14 9.73999C223.716 10.2318 223.47 10.8515 223.44 11.5C223.42 16.3432 223.943 21.1734 225 25.9ZM225.58 11.28C228.74 10.3 237.74 9.91998 240.6 11.28C241.58 13.88 242.1 22.82 240.92 24.9C239.06 25.38 227.7 25.38 225.8 25.4C225.74 23.84 224.82 15.42 225.58 11.28ZM251.84 25.82C251.867 25.9382 251.933 26.0439 252.027 26.1201C252.122 26.1963 252.239 26.2385 252.36 26.24C252.78 26.24 265.72 27.48 268.36 26.78C270.06 26.32 270.36 23.32 270.54 21.56C270.72 18.9 270.54 12.38 269.4 10.16C267.88 7.13998 256.66 8.15999 253.4 8.73999C252.537 8.86996 251.712 9.18369 250.98 9.65998C250.565 10.1571 250.32 10.7737 250.28 11.42C250.261 16.2631 250.785 21.0932 251.84 25.82ZM252.42 11.2C255.58 10.2 264.58 9.83998 267.44 11.2C268.42 13.8 268.94 22.74 267.76 24.8C265.9 25.3 254.54 25.3 252.64 25.32C252.58 23.76 251.66 15.34 252.42 11.2ZM279.92 26.7C279.943 26.8199 280.008 26.9278 280.104 27.0046C280.199 27.0814 280.318 27.1223 280.44 27.12C280.86 27.12 293.8 28.36 296.44 27.66C298.14 27.2 298.44 24.2 298.6 22.44C298.8 19.78 298.6 13.26 297.48 11.04C295.96 8.03999 284.74 9.03998 281.48 9.61998C280.616 9.74688 279.79 10.0609 279.06 10.54C278.636 11.0318 278.39 11.6515 278.36 12.3C278.34 17.1432 278.864 21.9734 279.92 26.7ZM280.5 12.08C283.66 11.1 292.66 10.72 295.52 12.08C296.5 14.68 297.02 23.62 295.84 25.7C293.98 26.18 282.62 26.18 280.72 26.2C280.66 24.64 279.74 16.22 280.5 12.08ZM252.02 56.58C252.16 56.98 252.48 57.02 252.54 57C252.98 57 265.9 58.24 268.54 57.54C270.24 57.08 270.54 54.08 270.72 52.32C270.9 49.66 270.72 43.14 269.6 40.94C268.06 37.92 256.84 38.94 253.6 39.5C252.729 39.6241 251.896 39.9381 251.16 40.42C250.741 40.9225 250.496 41.5468 250.46 42.2C250.441 47.0365 250.964 51.86 252.02 56.58ZM252.62 41.96C255.78 40.98 264.76 40.6 267.62 41.96C268.6 44.56 269.12 53.5 267.94 55.58C266.08 56.06 254.74 56.06 252.84 56.08C252.76 54.52 251.84 46.1 252.62 41.96ZM298.78 40.12C301.98 35.4 304.78 31.14 304.88 30.94C304.98 30.74 303.52 28.94 302.66 30.22C296.54 39.64 297.38 38.74 296.94 38.58C293.42 37.3 282.06 37.74 280.28 39.4C279.08 40.52 279.54 44.58 279.68 46.32C278.4 45.6 277.42 45.08 277.06 44.94C276.14 44.58 276.2 45.48 276.7 45.8L279.82 47.8C280.073 50.4284 280.48 53.0396 281.04 55.62C281.06 55.7418 281.124 55.8521 281.22 55.9296C281.316 56.0072 281.437 56.0465 281.56 56.04C281.98 56.04 294.92 57.28 297.56 56.58C301 55.62 299.94 43 298.78 40.12ZM281.62 40.94C286.325 39.8695 291.2 39.7809 295.94 40.68L289 51.62C288.3 51.22 284.56 49.02 281.44 47.26C281.308 45.1722 281.369 43.0767 281.62 41V40.94ZM296.96 54.54C295.08 55.04 283.74 55.04 281.84 55.06C281.84 54.26 281.54 51.64 281.4 48.74L289 53.46C289.192 53.481 289.386 53.447 289.56 53.3621C289.733 53.2771 289.879 53.1446 289.98 52.98C290.62 52.16 293.84 47.48 297.12 42.66C297.74 46.26 297.94 52.82 297 54.54H296.96ZM217.44 11.76C217.983 11.7679 218.516 11.6144 218.971 11.3191C219.426 11.0238 219.784 10.5998 219.998 10.1011C220.212 9.60235 220.273 9.05125 220.173 8.5177C220.074 7.98415 219.818 7.49219 219.439 7.10421C219.059 6.71623 218.573 6.44971 218.042 6.33845C217.51 6.2272 216.958 6.27622 216.455 6.47931C215.951 6.68239 215.52 7.03038 215.214 7.47915C214.909 7.92792 214.744 8.45724 214.74 8.99998C214.74 9.7217 215.022 10.4148 215.527 10.9307C216.032 11.4466 216.718 11.7443 217.44 11.76Z" fill="black"/>
</svg>
