<svg width="233" height="265" viewBox="0 0 233 265" fill="none" xmlns="http://www.w3.org/2000/svg">
<rect x="67" width="98" height="171" rx="49" fill="black"/>
<rect x="68.647" y="1.67648" width="94.7059" height="167.647" rx="47.3529" fill="white"/>
<rect x="45" y="88" width="142.283" height="2.73134" rx="1.36567" fill="black"/>
<path d="M74 77.3982L116.5 84.4159V133L74 125.712V77.3982Z" fill="black"/>
<path d="M159 77.3982L116.5 84.4159V133L159 125.712V77.3982Z" fill="black"/>
<path d="M151.562 73.6195L120.219 86.0354L116.766 133L151.562 122.204V73.6195Z" fill="black"/>
<path d="M150.5 75.2389L121.281 86.8451L118.891 130.571L150.5 121.664V75.2389Z" fill="white"/>
<path d="M81.4375 73.6195L112.781 86.0354L116.234 133L81.4375 122.204V73.6195Z" fill="black"/>
<path d="M82.5 75.2389L111.719 86.8451L114.109 130.571L82.5 121.664V75.2389Z" fill="white"/>
<path d="M85.6875 72L117.031 84.4159V132.87L85.6875 120.584V72Z" fill="black"/>
<path d="M86.75 73.6195L115.969 85.2257V131.381L86.75 120.044V73.6195Z" fill="white"/>
<path d="M147.312 72L115.969 84.4159V132.87L147.312 120.584V72Z" fill="black"/>
<path d="M146.25 73.6195L117.031 85.2257V131.381L146.25 120.044V73.6195Z" fill="white"/>
<rect x="153" y="116" width="12" height="4" rx="2" fill="black"/>
<rect x="115" y="170" width="4" height="24" fill="black"/>
<rect x="82" y="194" width="70" height="4" rx="2" fill="black"/>
<rect x="67" y="65" width="54" height="4" rx="2" fill="black"/>
<rect x="141" y="51" width="24" height="4" rx="2" fill="black"/>
<rect x="135" y="65" width="9" height="4" rx="2" fill="black"/>
<rect x="67" y="100" width="9" height="4" rx="2" fill="black"/>
<rect x="132" y="51" width="4" height="4" rx="2" fill="black"/>
<path d="M45.3347 240L37.6114 212.653H46.2214L48.2514 222.08L50.3514 231.973L52.3347 222.08L54.4347 212.653H60.5714L53.8047 240H45.3347ZM71.3406 227.937C71.3406 225.961 71.2395 224.561 71.0373 223.737C70.8351 222.912 70.4617 222.5 69.9173 222.5C69.4506 222.5 69.0695 222.586 68.7739 222.757C68.4784 222.912 68.2606 223.169 68.1206 223.527C67.9806 223.869 67.8873 224.227 67.8406 224.6C67.8095 224.958 67.7939 225.417 67.7939 225.977V227.937H71.3406ZM69.4739 240.49C67.7317 240.49 66.2151 240.226 64.9239 239.697C63.6484 239.168 62.6373 238.429 61.8906 237.48C61.1595 236.531 60.6228 235.466 60.2806 234.283C59.9384 233.086 59.7673 231.756 59.7673 230.293C59.7673 226.809 60.6539 224.172 62.4273 222.383C64.2006 220.594 66.6817 219.7 69.8706 219.7C72.9351 219.7 75.1284 220.423 76.4506 221.87C77.7728 223.301 78.4339 225.611 78.4339 228.8V231.39H67.7706V231.833C67.7706 232.751 67.8639 233.506 68.0506 234.097C68.2528 234.688 68.5406 235.123 68.9139 235.403C69.2873 235.683 69.6684 235.87 70.0573 235.963C70.4462 236.057 70.9206 236.103 71.4806 236.103C72.0251 236.103 72.6084 236.033 73.2306 235.893C73.8684 235.753 74.5062 235.536 75.1439 235.24C75.7973 234.944 76.3417 234.594 76.7773 234.19L78.1539 236.547C77.5784 237.48 76.7306 238.266 75.6106 238.903C74.5062 239.526 73.4406 239.946 72.4139 240.163C71.3873 240.381 70.4073 240.49 69.4739 240.49ZM88.4983 240H80.9616V224.903L79.5616 224.04V221.403L84.5783 220.167H86.4683L87.1449 225.72C87.7827 221.909 89.8283 220.003 93.2816 220.003C93.6705 220.003 94.0749 220.073 94.4949 220.213L93.7016 228.52C93.3749 228.224 92.6594 228.077 91.5549 228.077C89.9683 228.077 88.9494 228.497 88.4983 229.337V240ZM108.289 240C106.547 240 104.991 239.634 103.622 238.903V240H96.0158V213.61L94.6158 212.77V210.6L102.106 209.433H103.622V221.987C103.871 221.707 104.144 221.442 104.439 221.193C104.735 220.944 105.092 220.703 105.512 220.47C105.932 220.237 106.407 220.05 106.936 219.91C107.48 219.77 108.056 219.7 108.662 219.7C111.229 219.7 113.111 220.579 114.309 222.337C115.522 224.094 116.129 226.529 116.129 229.64C116.129 231.102 115.966 232.456 115.639 233.7C115.312 234.929 114.83 236.018 114.192 236.967C113.555 237.916 112.73 238.662 111.719 239.207C110.724 239.736 109.58 240 108.289 240ZM104.859 236.757C106.944 236.757 107.986 235.162 107.986 231.973V228.007C107.986 226.669 107.737 225.642 107.239 224.927C106.757 224.196 106.135 223.83 105.372 223.83C104.797 223.83 104.214 224.04 103.622 224.46V236.593C103.856 236.656 104.074 236.702 104.276 236.733C104.478 236.749 104.672 236.757 104.859 236.757ZM128.639 237.923L128.406 238.18C128.25 238.367 128.009 238.584 127.683 238.833C127.371 239.082 127.006 239.331 126.586 239.58C126.181 239.829 125.684 240.039 125.093 240.21C124.501 240.397 123.895 240.49 123.273 240.49C119.073 240.49 116.973 238.413 116.973 234.26C116.973 233.451 117.12 232.712 117.416 232.043C117.711 231.359 118.093 230.783 118.559 230.317C119.026 229.85 119.586 229.438 120.239 229.08C120.893 228.707 121.546 228.419 122.199 228.217C122.868 227.999 123.568 227.82 124.299 227.68C125.03 227.54 125.684 227.447 126.259 227.4C126.835 227.353 127.387 227.33 127.916 227.33V226.91C127.916 225.961 127.659 225.292 127.146 224.903C126.648 224.514 125.839 224.32 124.719 224.32C123.755 224.32 122.751 224.437 121.709 224.67C120.667 224.888 119.85 225.152 119.259 225.463L117.766 222.29C118.824 221.606 120.2 221.007 121.896 220.493C123.591 219.964 125.318 219.7 127.076 219.7C128.631 219.7 129.915 219.856 130.926 220.167C131.937 220.462 132.754 220.976 133.376 221.707C134.014 222.422 134.465 223.34 134.729 224.46C134.994 225.564 135.126 226.972 135.126 228.683V238.18L135.779 240H129.386L128.639 237.923ZM126.796 236.383C126.998 236.383 127.185 236.344 127.356 236.267C127.543 236.173 127.683 236.088 127.776 236.01C127.869 235.917 127.916 235.87 127.916 235.87V230.27C126.967 230.27 126.213 230.534 125.653 231.063C125.093 231.577 124.813 232.378 124.813 233.467C124.813 235.411 125.474 236.383 126.796 236.383ZM143.57 240.49C141.47 240.49 140 239.86 139.16 238.6C138.336 237.34 137.923 235.209 137.923 232.207V224.273H136.313V221.03L139.067 220.167L141.447 214.73H145.553V220.167H149.38V224.273H145.483V232.953C145.483 234.198 145.662 235.022 146.02 235.427C146.378 235.831 146.93 236.033 147.677 236.033C148.003 236.033 148.299 235.994 148.563 235.917C148.828 235.839 149.046 235.73 149.217 235.59V238.763C148.983 238.997 148.68 239.23 148.307 239.463C147.933 239.681 147.311 239.907 146.44 240.14C145.584 240.373 144.628 240.49 143.57 240.49ZM151.44 240V224.903L150.04 224.04V221.543L155.057 220.167H158.953V240H151.44ZM154.823 218.02L150.997 214.17V213.353L154.823 209.527H155.71L159.7 213.353V214.17L155.71 218.02H154.823ZM169.709 240H162.173V224.903L160.773 224.04V221.543L165.789 220.167H169.756V223.177C169.834 223.068 169.943 222.928 170.083 222.757C170.238 222.57 170.518 222.282 170.923 221.893C171.327 221.504 171.739 221.162 172.159 220.867C172.595 220.571 173.116 220.307 173.723 220.073C174.345 219.824 174.959 219.7 175.566 219.7C177.121 219.7 178.311 219.996 179.136 220.587C179.96 221.178 180.544 222.142 180.886 223.48C181.415 222.562 182.224 221.707 183.313 220.913C184.417 220.104 185.63 219.7 186.953 219.7C188.415 219.7 189.55 219.957 190.359 220.47C191.184 220.968 191.783 221.823 192.156 223.037C192.529 224.25 192.716 225.961 192.716 228.17V240H185.133V227.493C185.133 226.809 184.969 226.272 184.643 225.883C184.316 225.494 183.818 225.3 183.149 225.3C182.698 225.3 182.084 225.673 181.306 226.42C181.353 227.167 181.376 227.976 181.376 228.847V240H173.676V227.493C173.723 226.031 173.1 225.3 171.809 225.3C171.716 225.3 171.623 225.308 171.529 225.323C171.451 225.339 171.374 225.354 171.296 225.37C171.234 225.386 171.156 225.417 171.063 225.463C170.985 225.494 170.915 225.526 170.853 225.557C170.79 225.572 170.72 225.611 170.643 225.673C170.565 225.72 170.503 225.759 170.456 225.79C170.409 225.821 170.339 225.876 170.246 225.953C170.168 226.016 170.106 226.062 170.059 226.093C170.028 226.124 169.966 226.179 169.873 226.257C169.795 226.319 169.74 226.366 169.709 226.397V240Z" fill="black"/>
<rect y="249" width="96" height="4" fill="black"/>
<rect x="102" y="249" width="16" height="4" fill="black"/>
<rect x="124" y="249" width="87" height="4" fill="black"/>
<rect x="217" y="249" width="4" height="4" fill="black"/>
</svg>
