<svg width="512" height="512" viewBox="0 0 512 512" fill="none" xmlns="http://www.w3.org/2000/svg">
<path d="M0 0H512V512H0V0Z" fill="url(#paint0_linear_71_100)"/>
<path d="M157 75H193L256 235V342.5L157 75Z" fill="white"/>
<path d="M355 75.5H319L256 235.799V343.5L355 75.5Z" fill="white"/>
<path d="M117.232 409L105.2 362.28H111.152L119.088 394.024C119.643 396.243 120.112 398.312 120.496 400.232C120.88 402.109 121.157 403.539 121.328 404.52C121.499 403.539 121.755 402.109 122.096 400.232C122.48 398.312 122.949 396.243 123.504 394.024L131.376 362.28H137.2L125.104 409H117.232Z" fill="white"/>
<path d="M159.575 409.64C156.802 409.64 154.37 409.085 152.279 407.976C150.231 406.867 148.631 405.309 147.479 403.304C146.37 401.256 145.815 398.888 145.815 396.2V386.6C145.815 383.869 146.37 381.501 147.479 379.496C148.631 377.491 150.231 375.933 152.279 374.824C154.37 373.715 156.802 373.16 159.575 373.16C162.348 373.16 164.759 373.715 166.807 374.824C168.898 375.933 170.498 377.491 171.607 379.496C172.759 381.501 173.335 383.869 173.335 386.6V392.808H151.447V396.2C151.447 398.973 152.151 401.107 153.559 402.6C154.967 404.051 156.972 404.776 159.575 404.776C161.794 404.776 163.586 404.392 164.951 403.624C166.316 402.813 167.148 401.619 167.447 400.04H173.207C172.823 402.984 171.372 405.331 168.855 407.08C166.38 408.787 163.287 409.64 159.575 409.64ZM167.703 388.968V386.6C167.703 383.827 166.999 381.693 165.591 380.2C164.226 378.707 162.22 377.96 159.575 377.96C156.972 377.96 154.967 378.707 153.559 380.2C152.151 381.693 151.447 383.827 151.447 386.6V388.456H168.151L167.703 388.968Z" fill="white"/>
<path d="M185.854 409V373.8H191.486V380.52H192.83L190.974 384.68C190.974 380.883 191.785 378.024 193.406 376.104C195.07 374.141 197.523 373.16 200.766 373.16C204.478 373.16 207.422 374.333 209.598 376.68C211.817 378.984 212.926 382.12 212.926 386.088V388.2H207.166V386.6C207.166 383.827 206.483 381.715 205.118 380.264C203.795 378.771 201.897 378.024 199.422 378.024C196.99 378.024 195.07 378.771 193.662 380.264C192.297 381.757 191.614 383.869 191.614 386.6V409H185.854Z" fill="white"/>
<path d="M238.373 409.64C235.472 409.64 233.146 408.872 231.397 407.336C229.648 405.757 228.773 403.624 228.773 400.936L229.925 402.28H228.773V409H223.013V362.28H228.773V372.52L228.645 380.52H229.925L228.773 381.864C228.773 379.219 229.648 377.107 231.397 375.528C233.189 373.949 235.514 373.16 238.373 373.16C241.914 373.16 244.752 374.333 246.885 376.68C249.018 379.027 250.085 382.227 250.085 386.28V396.584C250.085 400.595 249.018 403.773 246.885 406.12C244.752 408.467 241.914 409.64 238.373 409.64ZM236.453 404.648C238.885 404.648 240.805 403.923 242.213 402.472C243.621 401.021 244.325 398.931 244.325 396.2V386.6C244.325 383.869 243.621 381.779 242.213 380.328C240.805 378.877 238.885 378.152 236.453 378.152C234.106 378.152 232.229 378.899 230.821 380.392C229.456 381.885 228.773 383.955 228.773 386.6V396.2C228.773 398.845 229.456 400.915 230.821 402.408C232.229 403.901 234.106 404.648 236.453 404.648Z" fill="white"/>
<path d="M271.628 409.64C267.916 409.64 264.993 408.701 262.86 406.824C260.727 404.904 259.66 402.323 259.66 399.08C259.66 395.795 260.727 393.213 262.86 391.336C264.993 389.459 267.873 388.52 271.5 388.52H282.38V385C282.38 382.824 281.719 381.16 280.396 380.008C279.116 378.813 277.281 378.216 274.892 378.216C272.801 378.216 271.052 378.664 269.644 379.56C268.236 380.413 267.425 381.587 267.212 383.08H261.452C261.836 380.051 263.265 377.64 265.74 375.848C268.215 374.056 271.308 373.16 275.02 373.16C279.073 373.16 282.273 374.205 284.62 376.296C286.967 378.387 288.14 381.224 288.14 384.808V409H282.508V402.28H281.548L282.508 401.32C282.508 403.88 281.505 405.907 279.5 407.4C277.537 408.893 274.913 409.64 271.628 409.64ZM273.036 405.096C275.767 405.096 278.007 404.413 279.756 403.048C281.505 401.683 282.38 399.933 282.38 397.8V392.808H271.628C269.708 392.808 268.193 393.341 267.084 394.408C265.975 395.475 265.42 396.925 265.42 398.76C265.42 400.723 266.081 402.28 267.404 403.432C268.769 404.541 270.647 405.096 273.036 405.096Z" fill="white"/>
<path d="M316.915 409C313.886 409 311.518 408.189 309.811 406.568C308.147 404.947 307.315 402.664 307.315 399.72V379.048H297.395V373.8H307.315V363.88H313.075V373.8H327.155V379.048H313.075V399.72C313.075 402.408 314.355 403.752 316.915 403.752H326.515V409H316.915Z" fill="white"/>
<path d="M337.69 409V403.752H350.17V379.048H339.29V373.8H355.93V403.752H367.77V409H337.69ZM352.41 367.464C351.002 367.464 349.893 367.101 349.082 366.376C348.271 365.651 347.866 364.669 347.866 363.432C347.866 362.152 348.271 361.149 349.082 360.424C349.893 359.656 351.002 359.272 352.41 359.272C353.818 359.272 354.927 359.656 355.738 360.424C356.549 361.149 356.954 362.152 356.954 363.432C356.954 364.669 356.549 365.651 355.738 366.376C354.927 367.101 353.818 367.464 352.41 367.464Z" fill="white"/>
<path d="M374.849 409V373.8H379.905V378.024H381.057L380.161 379.56C380.161 377.597 380.673 376.04 381.697 374.888C382.764 373.736 384.193 373.16 385.985 373.16C387.948 373.16 389.462 373.885 390.529 375.336C391.596 376.787 392.129 378.835 392.129 381.48L390.401 378.024H393.089L391.873 379.56C391.873 377.597 392.406 376.04 393.473 374.888C394.582 373.736 396.033 373.16 397.825 373.16C400.044 373.16 401.75 373.992 402.945 375.656C404.182 377.32 404.801 379.517 404.801 382.248V409H399.489V382.184C399.489 380.733 399.169 379.603 398.529 378.792C397.932 377.981 397.036 377.576 395.841 377.576C394.689 377.576 393.772 377.981 393.089 378.792C392.449 379.56 392.129 380.669 392.129 382.12V409H387.521V382.184C387.521 380.691 387.18 379.56 386.497 378.792C385.857 377.981 384.94 377.576 383.745 377.576C382.55 377.576 381.654 377.981 381.057 378.792C380.46 379.56 380.161 380.669 380.161 382.12V409H374.849Z" fill="white"/>
<defs>
<linearGradient id="paint0_linear_71_100" x1="21" y1="507" x2="468" y2="42" gradientUnits="userSpaceOnUse">
<stop offset="0.0894051" stop-color="#6E0000"/>
<stop offset="0.979358" stop-color="#CD3D3D"/>
</linearGradient>
</defs>
</svg>
