<svg width="756" height="432" viewBox="0 0 756 432" fill="none" xmlns="http://www.w3.org/2000/svg">
<path d="M126 54C126 43.3198 122.305 32.8795 115.383 23.9992C108.46 15.119 98.6208 8.19764 87.1091 4.11051C75.5973 0.023373 62.9301 -1.04601 50.7093 1.03759C38.4885 3.1212 27.263 8.2642 18.4523 15.8162C9.64156 23.3683 3.6414 32.9902 1.21053 43.4651C-1.22034 53.9401 0.0272687 64.7977 4.79559 74.6649C9.56391 84.5321 17.6388 92.9658 27.9991 98.8994C38.3594 104.833 50.5398 108 63 108V54H126Z" fill="#D32110"/>
<path d="M252 54C252 39.6783 245.363 25.9432 233.548 15.8162C221.733 5.68927 205.709 1.08126e-06 189 0C172.291 -1.08126e-06 156.267 5.68927 144.452 15.8162C132.637 25.9432 126 39.6783 126 54L189 54H252Z" fill="#EC745A"/>
<path d="M126 162C126 154.909 124.37 147.887 121.204 141.335C118.038 134.784 113.398 128.831 107.548 123.816C101.698 118.802 94.7526 114.824 87.1091 112.111C79.4655 109.397 71.2733 108 63 108L63 162H126Z" fill="#5B0905"/>
<path d="M63 162C63 169.091 64.6295 176.113 67.7956 182.665C70.9616 189.216 75.6022 195.169 81.4523 200.184C87.3024 205.198 94.2474 209.176 101.891 211.889C109.534 214.603 117.727 216 126 216L126 162L63 162Z" fill="#5B0905"/>
<path d="M252 162C252 172.68 248.305 183.121 241.383 192.001C234.46 200.881 224.621 207.802 213.109 211.889C201.597 215.977 188.93 217.046 176.709 214.962C164.489 212.879 153.263 207.736 144.452 200.184C135.642 192.632 129.641 183.01 127.211 172.535C124.78 162.06 126.027 151.202 130.796 141.335C135.564 131.468 143.639 123.034 153.999 117.101C164.359 111.167 176.54 108 189 108V162H252Z" fill="#771A0F"/>
<path d="M63 216C46.2914 216 30.2671 221.689 18.4523 231.816C6.63748 241.943 1.46072e-06 255.678 0 270C-1.46072e-06 284.322 6.63748 298.057 18.4523 308.184C30.2671 318.311 46.2914 324 63 324L63 270V216Z" fill="#D32110"/>
<path d="M126 270C126 259.32 129.695 248.879 136.617 239.999C143.54 231.119 153.379 224.198 164.891 220.111C176.403 216.023 189.07 214.954 201.291 217.038C213.512 219.121 224.737 224.264 233.548 231.816C242.358 239.368 248.359 248.99 250.789 259.465C253.22 269.94 251.973 280.798 247.204 290.665C242.436 300.532 234.361 308.966 224.001 314.899C213.641 320.833 201.46 324 189 324L189 270L126 270Z" fill="#5B0905"/>
<path d="M126 378C126 385.091 124.37 392.113 121.204 398.665C118.038 405.216 113.398 411.169 107.548 416.184C101.698 421.198 94.7526 425.176 87.1091 427.889C79.4655 430.603 71.2733 432 63 432L63 378H126Z" fill="#900B05"/>
<path d="M63 270C71.2733 270 79.4655 271.397 87.1091 274.111C94.7526 276.824 101.698 280.802 107.548 285.816C113.398 290.831 118.038 296.784 121.204 303.335C124.37 309.887 126 316.909 126 324L63 324V270Z" fill="#5B0905"/>
<path d="M0 270C8.27328 270 16.4655 271.397 24.1091 274.111C31.7526 276.824 38.6976 280.802 44.5477 285.816C50.3978 290.831 55.0384 296.784 58.2044 303.335C61.3705 309.887 63 316.909 63 324C63 331.091 61.3705 338.113 58.2044 344.665C55.0384 351.216 50.3978 357.169 44.5477 362.184C38.6976 367.198 31.7526 371.176 24.109 373.89C16.4655 376.603 8.27325 378 -2.28882e-05 378L0 324V270Z" fill="#6E0000"/>
<ellipse cx="315" cy="54" rx="63" ry="54" fill="#B84831"/>
<path d="M504 54C504 61.0914 505.63 68.1133 508.796 74.6649C511.962 81.2165 516.602 87.1694 522.452 92.1838C528.302 97.1981 535.247 101.176 542.891 103.889C550.534 106.603 558.727 108 567 108L567 54L504 54Z" fill="#771A0F"/>
<path d="M441 108C449.273 108 457.466 106.603 465.109 103.889C472.753 101.176 479.698 97.1981 485.548 92.1838C491.398 87.1694 496.038 81.2165 499.204 74.6649C502.37 68.1133 504 61.0914 504 54C504 46.9086 502.37 39.8867 499.204 33.3351C496.038 26.7835 491.398 20.8306 485.548 15.8162C479.698 10.8019 472.753 6.82426 465.109 4.1105C457.466 1.39675 449.273 -3.09974e-07 441 0L441 54L441 108Z" fill="#D32110"/>
<path d="M378 162C378 154.909 376.37 147.887 373.204 141.335C370.038 134.784 365.398 128.831 359.548 123.816C353.698 118.802 346.753 114.824 339.109 112.111C331.466 109.397 323.273 108 315 108L315 162H378Z" fill="#F52C15"/>
<path d="M-3.8147e-06 216C8.27328 216 16.4655 214.603 24.1091 211.889C31.7526 209.176 38.6976 205.198 44.5477 200.184C50.3978 195.169 55.0384 189.216 58.2044 182.665C61.3705 176.113 63 169.091 63 162C63 154.909 61.3705 147.887 58.2044 141.335C55.0384 134.784 50.3978 128.831 44.5477 123.816C38.6976 118.802 31.7526 114.824 24.1091 112.111C16.4655 109.397 8.27328 108 -3.8147e-06 108L0 162L-3.8147e-06 216Z" fill="#F52C15"/>
<path d="M504 162C504 154.909 502.37 147.887 499.204 141.335C496.038 134.784 491.398 128.831 485.548 123.816C479.698 118.802 472.753 114.824 465.109 112.111C457.466 109.397 449.273 108 441 108L441 162H504Z" fill="#6E0000"/>
<path d="M378 270C378 255.678 371.363 241.943 359.548 231.816C347.733 221.689 331.709 216 315 216C298.291 216 282.267 221.689 270.452 231.816C258.637 241.943 252 255.678 252 270L315 270H378Z" fill="#D32110"/>
<path d="M189 324C172.291 324 156.267 329.689 144.452 339.816C132.637 349.943 126 363.678 126 378C126 392.322 132.637 406.057 144.452 416.184C156.267 426.311 172.291 432 189 432L189 378V324Z" fill="#D32110"/>
<path d="M504 270C504 280.68 500.305 291.121 493.383 300.001C486.46 308.881 476.621 315.802 465.109 319.889C453.597 323.977 440.93 325.046 428.709 322.962C416.489 320.879 405.263 315.736 396.452 308.184C387.642 300.632 381.641 291.01 379.211 280.535C376.78 270.06 378.027 259.202 382.796 249.335C387.564 239.468 395.639 231.034 405.999 225.101C416.359 219.167 428.54 216 441 216V270H504Z" fill="#F52C15"/>
<path d="M378 378C378 392.322 371.363 406.057 359.548 416.184C347.733 426.311 331.709 432 315 432C298.291 432 282.267 426.311 270.452 416.184C258.637 406.057 252 392.322 252 378L315 378H378Z" fill="#771A0F"/>
<path d="M315 270C331.709 270 347.733 275.689 359.548 285.816C371.363 295.943 378 309.678 378 324C378 338.322 371.363 352.057 359.548 362.184C347.733 372.311 331.709 378 315 378L315 324V270Z" fill="#6E0000"/>
<path d="M630 162C613.291 162 597.267 156.311 585.452 146.184C573.637 136.057 567 122.322 567 108C567 93.6783 573.637 79.9432 585.452 69.8162C597.267 59.6893 613.291 54 630 54V108L630 162Z" fill="#C9573F"/>
<path d="M378 378C378 367.32 381.695 356.879 388.617 347.999C395.54 339.119 405.379 332.198 416.891 328.111C428.403 324.023 441.07 322.954 453.291 325.038C465.512 327.121 476.737 332.264 485.548 339.816C494.358 347.368 500.359 356.99 502.789 367.465C505.22 377.94 503.973 388.798 499.204 398.665C494.436 408.532 486.361 416.966 476.001 422.899C465.641 428.833 453.46 432 441 432L441 378L378 378Z" fill="#D32110"/>
<path d="M630 216C630 208.909 628.37 201.887 625.204 195.335C622.038 188.784 617.398 182.831 611.548 177.816C605.698 172.802 598.753 168.824 591.109 166.111C583.466 163.397 575.273 162 567 162L567 216H630Z" fill="#C9573F"/>
<path d="M630 54C630 68.3217 636.637 82.0568 648.452 92.1838C660.267 102.311 676.291 108 693 108C709.709 108 725.733 102.311 737.548 92.1838C749.363 82.0568 756 68.3217 756 54L693 54L630 54Z" fill="#B84831"/>
<path d="M630 162C630 147.678 623.363 133.943 611.548 123.816C599.733 113.689 583.709 108 567 108C550.291 108 534.267 113.689 522.452 123.816C510.637 133.943 504 147.678 504 162L567 162H630Z" fill="#F52C15"/>
<path d="M756 324C756 309.678 749.363 295.943 737.548 285.816C725.733 275.689 709.709 270 693 270C676.291 270 660.267 275.689 648.452 285.816C636.637 295.943 630 309.678 630 324L693 324H756Z" fill="#900B05"/>
<path d="M693 270C693 255.678 686.363 241.943 674.548 231.816C662.733 221.689 646.709 216 630 216C613.291 216 597.267 221.689 585.452 231.816C573.637 241.943 567 255.678 567 270L630 270H693Z" fill="#D32110"/>
<path d="M756 162C756 154.909 754.37 147.887 751.204 141.335C748.038 134.784 743.398 128.831 737.548 123.816C731.698 118.802 724.753 114.824 717.109 112.111C709.466 109.397 701.273 108 693 108L693 162H756Z" fill="#D32110"/>
<path d="M630 270C630 277.091 628.37 284.113 625.204 290.665C622.038 297.216 617.398 303.169 611.548 308.184C605.698 313.198 598.753 317.176 591.109 319.889C583.466 322.603 575.273 324 567 324C558.727 324 550.534 322.603 542.891 319.889C535.247 317.176 528.302 313.198 522.452 308.184C516.602 303.169 511.962 297.216 508.796 290.665C505.63 284.113 504 277.091 504 270L567 270H630Z" fill="#771A0F"/>
<path d="M693 54C693 46.9086 691.37 39.8867 688.204 33.3351C685.038 26.7835 680.398 20.8306 674.548 15.8162C668.698 10.8019 661.753 6.82426 654.109 4.1105C646.466 1.39675 638.273 -3.09974e-07 630 0L630 54H693Z" fill="#D32110"/>
<path d="M756 216C756 208.909 754.37 201.887 751.204 195.335C748.038 188.784 743.398 182.831 737.548 177.816C731.698 172.802 724.753 168.824 717.109 166.111C709.466 163.397 701.273 162 693 162L693 216H756Z" fill="#900B05"/>
<path d="M378 270C378 255.678 371.363 241.943 359.548 231.816C347.733 221.689 331.709 216 315 216C298.291 216 282.267 221.689 270.452 231.816C258.637 241.943 252 255.678 252 270L315 270H378Z" fill="#771A0F"/>
<path d="M567 216C567 201.678 560.363 187.943 548.548 177.816C536.733 167.689 520.709 162 504 162C487.291 162 471.267 167.689 459.452 177.816C447.637 187.943 441 201.678 441 216L504 216H567Z" fill="#D32110"/>
<path d="M567 324C583.709 324 599.733 329.689 611.548 339.816C623.363 349.943 630 363.678 630 378C630 392.322 623.363 406.057 611.548 416.184C599.733 426.311 583.709 432 567 432L567 378V324Z" fill="#EC745A"/>
<path d="M756 378C756 385.091 754.37 392.113 751.204 398.665C748.038 405.216 743.398 411.169 737.548 416.184C731.698 421.198 724.753 425.176 717.109 427.889C709.466 430.603 701.273 432 693 432L693 378H756Z" fill="#5B0905"/>
</svg>
